<svg width="42" height="16" viewBox="0 0 42 16" fill="none" xmlns="http://www.w3.org/2000/svg">
<path fill-rule="evenodd" clip-rule="evenodd" d="M0.240744 8.65077C-0.0802468 8.27628 -0.0802467 7.72368 0.240745 7.34919L6.24074 0.349192C6.60017 -0.0701333 7.23147 -0.118695 7.65079 0.240727C8.07012 0.600149 8.11868 1.23145 7.75926 1.65078L2.31708 7.99998L7.75926 14.3492C8.11868 14.7685 8.07012 15.3998 7.65079 15.7592C7.23146 16.1187 6.60016 16.0701 6.24074 15.6508L0.240744 8.65077Z" fill="white"/>
<path fill-rule="evenodd" clip-rule="evenodd" d="M42 8C42 8.55228 41.5523 9 41 9L1 9C0.447716 9 3.91405e-08 8.55228 8.74228e-08 8C1.35705e-07 7.44771 0.447716 7 1 7L41 7C41.5523 7 42 7.44772 42 8Z" fill="white"/>
</svg>
