<svg width="20" height="20" viewBox="0 0 20 20" fill="none" xmlns="http://www.w3.org/2000/svg">
<path d="M5.58742 10.5868H7.54039V18.7097C7.54039 18.8701 7.66902 19 7.82776 19H11.1391C11.2979 19 11.4265 18.8701 11.4265 18.7097V10.6251H13.6716C13.8176 10.6251 13.9404 10.5144 13.9571 10.3679L14.2981 7.37749C14.3075 7.29521 14.2817 7.21279 14.2272 7.1511C14.1726 7.08933 14.0946 7.05396 14.0127 7.05396H11.4266V5.17942C11.4266 4.61434 11.7277 4.32779 12.3218 4.32779C12.4064 4.32779 14.0126 4.32779 14.0126 4.32779C14.1713 4.32779 14.3 4.19781 14.3 4.03747V1.29248C14.3 1.13211 14.1713 1.00216 14.0126 1.00216H11.6823C11.666 1.00135 11.6295 1 11.5757 1C11.1714 1 9.76598 1.08019 8.65581 2.112C7.42576 3.25541 7.59675 4.62444 7.63759 4.86182V7.05385H5.58735C5.42861 7.05385 5.29999 7.18379 5.29999 7.34417V10.2964C5.30006 10.4568 5.42868 10.5868 5.58742 10.5868Z" fill="#2547C7"/>
<path d="M11.0358 19H7.82365C7.47223 19 7.18634 18.7141 7.18634 18.3627V10.922H5.65043C5.29901 10.922 5.01312 10.636 5.01312 10.2846V7.44998C5.01312 7.09855 5.29905 6.81266 5.65043 6.81266H7.28067V5.09563C7.22681 4.74836 7.10436 3.33989 8.38408 2.16237C9.55651 1.08385 11.0343 1 11.4593 1C11.5118 1 11.5493 1.00116 11.5709 1.00207H13.8232C14.1746 1.00207 14.4605 1.28796 14.4605 1.63939V4.27495C14.4605 4.62637 14.1746 4.91226 13.8232 4.91226H12.183C11.7544 4.91226 11.6732 5.07363 11.6732 5.3714V6.8127H13.8232C14.0047 6.8127 14.178 6.89039 14.2989 7.02585C14.4197 7.16138 14.477 7.34257 14.4563 7.52296L14.1255 10.3942C14.0885 10.716 13.8163 10.9587 13.4924 10.9587H11.6731V18.3627C11.6731 18.7141 11.3872 19 11.0358 19ZM7.90342 18.2829H10.956V10.6002C10.956 10.4022 11.1165 10.2416 11.3145 10.2416H13.4212L13.7336 7.52992H11.3146C11.1166 7.52992 10.9561 7.3694 10.9561 7.17136V5.3715C10.9561 4.63498 11.4148 4.19525 12.1831 4.19525H13.7435V1.71923H11.5629C11.557 1.71923 11.5511 1.71909 11.5452 1.7188C11.5397 1.71852 11.5097 1.71719 11.4593 1.71719C11.0999 1.71719 9.85108 1.78736 8.86966 2.69021C7.81961 3.65637 7.95472 4.78805 7.99251 5.00514C7.99602 5.02543 7.99778 5.04599 7.99778 5.06656V7.17126C7.99778 7.36929 7.83722 7.52982 7.63922 7.52982H5.7302V10.2049H7.54486C7.74286 10.2049 7.90342 10.3654 7.90342 10.5634V18.2829Z" fill="#2547C7"/>
<path d="M8.62528 13.9799C8.42728 13.9799 8.26672 13.8194 8.26672 13.6214V13.4421C8.26672 13.244 8.42728 13.0835 8.62528 13.0835C8.82328 13.0835 8.98384 13.244 8.98384 13.4421V13.6214C8.98388 13.8194 8.82328 13.9799 8.62528 13.9799Z" fill="#2547C7"/>
<path d="M8.62528 17.8524C8.42728 17.8524 8.26672 17.6919 8.26672 17.4938V14.7687C8.26672 14.5707 8.42728 14.4102 8.62528 14.4102C8.82328 14.4102 8.98384 14.5707 8.98384 14.7687V17.4938C8.98388 17.6918 8.82328 17.8524 8.62528 17.8524Z" fill="#2547C7"/>
</svg>
