<svg width="20" height="20" viewBox="0 0 20 20" fill="none" xmlns="http://www.w3.org/2000/svg">
<path d="M13.6411 18.6631H6.35882C3.60214 18.6631 1.35944 16.4204 1.35944 13.6638V6.33634C1.35944 3.57962 3.60214 1.33691 6.35882 1.33691H13.6411C16.3978 1.33691 18.6405 3.57962 18.6405 6.33634V13.6638C18.6405 16.4204 16.3978 18.6631 13.6411 18.6631ZM6.35882 3.39142C4.73497 3.39142 3.4139 4.71248 3.4139 6.33634V13.6638C3.4139 15.2876 4.73497 16.6087 6.35882 16.6087H13.6411C15.265 16.6087 16.5861 15.2876 16.5861 13.6638V6.33634C16.5861 4.71248 15.265 3.39142 13.6411 3.39142H6.35882Z" fill="#2547C7"/>
<path d="M9.99995 14.2863C7.63634 14.2863 5.71344 12.3634 5.71344 9.99987C5.71344 7.63628 7.63638 5.71338 9.99995 5.71338C12.3635 5.71338 14.2864 7.63631 14.2864 9.99987C14.2865 12.3634 12.3635 14.2863 9.99995 14.2863ZM9.99995 7.71744C8.74143 7.71744 7.71751 8.74133 7.71751 9.99987C7.71751 11.2584 8.7414 12.2823 9.99995 12.2823C11.2585 12.2823 12.2824 11.2584 12.2824 9.99987C12.2824 8.74133 11.2585 7.71744 9.99995 7.71744Z" fill="#2547C7"/>
<path d="M14.3874 6.3695C13.9701 6.3695 13.6306 6.03003 13.6306 5.61273C13.6306 5.19543 13.9701 4.85596 14.3873 4.85596C14.8046 4.85596 15.1441 5.19543 15.1441 5.61273C15.1441 6.03003 14.8047 6.3695 14.3874 6.3695Z" fill="#2547C7"/>
<path d="M13.6412 19.0227H6.35884C3.40395 19.0227 1 16.6187 1 13.6638V6.33642C1 3.38149 3.40395 0.977539 6.35884 0.977539H13.6412C16.596 0.977539 19 3.38149 19 6.33642V13.6639C19 16.6187 16.596 19.0227 13.6412 19.0227ZM6.35884 1.69646C3.80035 1.69646 1.71892 3.77789 1.71892 6.33638V13.6638C1.71892 16.2223 3.80035 18.3037 6.35884 18.3037H13.6412C16.1996 18.3037 18.281 16.2223 18.281 13.6638V6.33642C18.281 3.77792 16.1996 1.69649 13.6412 1.69649H6.35884V1.69646ZM13.6412 16.9682H6.35884C4.53678 16.9682 3.05447 15.4859 3.05447 13.6638V6.33642C3.05447 4.51435 4.53678 3.03208 6.35884 3.03208H13.6412C15.4632 3.03208 16.9455 4.51439 16.9455 6.33642V13.6639C16.9455 15.4859 15.4632 16.9682 13.6412 16.9682ZM6.35884 3.75096C4.93321 3.75096 3.77338 4.91078 3.77338 6.33638V13.6638C3.77338 15.0894 4.93321 16.2493 6.35884 16.2493H13.6412C15.0668 16.2493 16.2266 15.0894 16.2266 13.6638V6.33642C16.2266 4.91082 15.0668 3.75099 13.6412 3.75099H6.35884V3.75096Z" fill="#2547C7"/>
<path d="M9.99996 14.646C7.43815 14.646 5.354 12.5618 5.354 10C5.354 7.43818 7.43818 5.354 9.99996 5.354C12.5617 5.354 14.6459 7.43818 14.6459 10C14.6459 12.5618 12.5618 14.646 9.99996 14.646ZM9.99996 6.07295C7.83461 6.07295 6.07296 7.83461 6.07296 10C6.07296 12.1653 7.83461 13.927 9.99996 13.927C12.1653 13.927 13.927 12.1653 13.927 10C13.927 7.83461 12.1653 6.07295 9.99996 6.07295ZM9.99996 12.6419C8.54324 12.6419 7.35807 11.4567 7.35807 10C7.35807 8.54327 8.54324 7.35811 9.99996 7.35811C11.4567 7.35811 12.6418 8.54327 12.6418 10C12.6418 11.4567 11.4567 12.6419 9.99996 12.6419ZM9.99996 8.07702C8.93963 8.07702 8.07699 8.93967 8.07699 10C8.07699 11.0603 8.93963 11.923 9.99996 11.923C11.0603 11.923 11.9229 11.0603 11.9229 10C11.9229 8.93963 11.0603 8.07702 9.99996 8.07702Z" fill="#2547C7"/>
<path d="M14.3874 6.72913C13.7718 6.72913 13.2711 6.22842 13.2711 5.61288C13.2711 4.99733 13.7718 4.49658 14.3874 4.49658C15.0028 4.49658 15.5036 4.99737 15.5036 5.61288C15.5036 6.22838 15.0028 6.72913 14.3874 6.72913ZM14.3874 5.21553C14.1683 5.21553 13.99 5.39376 13.99 5.61288C13.99 5.83195 14.1683 6.01018 14.3874 6.01018C14.6064 6.01018 14.7847 5.83195 14.7847 5.61288C14.7847 5.3938 14.6065 5.21553 14.3874 5.21553Z" fill="#2547C7"/>
<path d="M9.42479 18.0163H6.0458C5.84727 18.0163 5.68634 17.8554 5.68634 17.6568C5.68634 17.4583 5.84727 17.2974 6.0458 17.2974H9.42479C9.62332 17.2974 9.78425 17.4583 9.78425 17.6568C9.78425 17.8554 9.62332 18.0163 9.42479 18.0163Z" fill="#2547C7"/>
<path d="M10.7908 18.0163H10.5751C10.3766 18.0163 10.2156 17.8554 10.2156 17.6568C10.2156 17.4583 10.3766 17.2974 10.5751 17.2974H10.7908C10.9893 17.2974 11.1502 17.4583 11.1502 17.6568C11.1502 17.8554 10.9893 18.0163 10.7908 18.0163Z" fill="#2547C7"/>
</svg>
