<svg width="20" height="17" viewBox="0 0 20 17" fill="none" xmlns="http://www.w3.org/2000/svg">
<path fill-rule="evenodd" clip-rule="evenodd" d="M19.5795 0.26303C19.8465 0.472928 19.979 0.810785 19.9261 1.14622L17.5576 16.1462C17.5068 16.468 17.2926 16.7404 16.9918 16.8656C16.691 16.9907 16.3468 16.9508 16.0827 16.76L10.8288 12.9655L8.31496 15.6418C8.05169 15.9221 7.64397 16.0132 7.28645 15.8717C6.92893 15.7301 6.69412 15.3845 6.69412 15V10.3067L0.860252 9.42703C0.444269 9.3643 0.121005 9.03215 0.0695735 8.61462C0.0181421 8.19709 0.251138 7.79643 0.639464 7.63462L18.6395 0.134625C18.9529 0.00401126 19.3125 0.0531311 19.5795 0.26303ZM8.56912 11.3335L9.29609 11.8586L8.56912 12.6325V11.3335ZM11.2689 10.9705C11.2614 10.9649 11.2539 10.9595 11.2462 10.9541L9.21472 9.48692L17.7143 3.1319L15.9436 14.3466L11.2689 10.9705ZM12.3956 4.76749L4.46059 8.07374L7.38401 8.51457L12.3956 4.76749Z" fill="white"/>
</svg>
