<svg width="20" height="20" viewBox="0 0 20 20" fill="none" xmlns="http://www.w3.org/2000/svg">
<g clip-path="url(#clip0_35_6571)">
<path d="M16.9251 11.4761C17.5621 12.0979 18.2343 12.6831 18.8056 13.3676C19.058 13.6719 19.2969 13.9858 19.4797 14.3388C19.7387 14.8407 19.5041 15.393 19.0541 15.423L16.2567 15.4217C15.5351 15.4816 14.9596 15.1911 14.4756 14.6978C14.0883 14.3033 13.7297 13.8834 13.3572 13.4756C13.2046 13.3089 13.0447 13.1521 12.8538 13.0281C12.472 12.7802 12.1405 12.8561 11.9222 13.2544C11.7 13.6595 11.6495 14.1081 11.6277 14.5596C11.5978 15.2183 11.3987 15.3915 10.7369 15.4217C9.32284 15.4883 7.98076 15.2744 6.73399 14.561C5.63485 13.9321 4.7825 13.0443 4.04058 12.0392C2.59608 10.0821 1.4899 7.93154 0.495753 5.72067C0.271963 5.22258 0.435636 4.9552 0.985209 4.94571C1.89783 4.92797 2.8103 4.92926 3.72397 4.94442C4.09488 4.94985 4.34042 5.16258 4.48367 5.51301C4.97742 6.72708 5.5816 7.88217 6.33993 8.9528C6.54188 9.23784 6.74778 9.52288 7.04107 9.72351C7.36548 9.94566 7.61247 9.87202 7.76509 9.51065C7.86193 9.28151 7.90431 9.03471 7.92615 8.78928C7.99845 7.94494 8.00798 7.10201 7.88119 6.26067C7.80333 5.73555 7.50759 5.39567 6.98356 5.29625C6.71618 5.24559 6.75599 5.1461 6.88544 4.99348C7.11028 4.73027 7.32181 4.56641 7.74333 4.56641H10.9049C11.4026 4.66465 11.5131 4.88824 11.5812 5.38903L11.5839 8.90088C11.5785 9.09479 11.6808 9.67011 12.03 9.79843C12.3095 9.8898 12.4937 9.6662 12.6614 9.48897C13.4184 8.68557 13.9586 7.73611 14.4413 6.75294C14.6554 6.32064 14.8396 5.87169 15.0181 5.42313C15.1503 5.09028 15.3578 4.92645 15.7328 4.93375L18.7756 4.93645C18.8659 4.93645 18.9571 4.93778 19.0445 4.95274C19.5573 5.04012 19.6978 5.26071 19.5394 5.76137C19.2899 6.54693 18.8044 7.20154 18.3297 7.8592C17.8223 8.56131 17.2796 9.23944 16.7764 9.94577C16.314 10.5907 16.3508 10.9159 16.9251 11.4761Z" fill="#2547C7"/>
<path d="M10.263 15.8318C8.84389 15.8318 7.62068 15.5277 6.53607 14.9072C5.50375 14.3166 4.60894 13.4805 3.71995 12.2762C2.45745 10.5655 1.35096 8.59419 0.132356 5.88444C-0.0381141 5.50499 -0.0439345 5.18565 0.115012 4.93526C0.273724 4.68526 0.564155 4.5549 0.978259 4.54776C1.85623 4.53069 2.75682 4.5303 3.73058 4.54651C4.24168 4.55401 4.64035 4.84381 4.85242 5.36268C5.36739 6.62894 5.96024 7.72789 6.66497 8.72294C6.84142 8.97192 7.02388 9.2295 7.26599 9.39513L7.26716 9.39591C7.31291 9.42716 7.37572 9.40868 7.39736 9.35775L7.39806 9.35607C7.46529 9.19708 7.50689 9.00591 7.52927 8.75438C7.60955 7.81754 7.59619 7.04375 7.48716 6.32042C7.43197 5.94812 7.25384 5.75339 6.90931 5.68804C6.81146 5.66952 6.51353 5.61307 6.41353 5.3303C6.3147 5.05084 6.50864 4.82225 6.58169 4.73616C6.83396 4.44084 7.14857 4.16846 7.74334 4.16846H10.9049C10.9294 4.16846 10.9542 4.17057 10.9782 4.17525C11.7746 4.33092 11.9078 4.83397 11.9761 5.33577C11.9784 5.35346 11.9797 5.37132 11.9797 5.38917L11.9824 8.90102C11.9824 8.90485 11.9823 8.90868 11.9822 8.91255C11.9802 8.98548 12 9.08939 12.03 9.18478C12.0718 9.31716 12.2415 9.35493 12.3364 9.25356C12.3369 9.25302 12.3375 9.25243 12.338 9.25189L12.3721 9.21564C13.1386 8.40208 13.6675 7.42563 14.0837 6.57785C14.3013 6.1387 14.489 5.67577 14.6481 5.27632C14.8467 4.77616 15.2113 4.52705 15.7367 4.53584L18.7761 4.53854C18.8807 4.53854 18.9932 4.54022 19.1118 4.56053C19.3545 4.6019 19.699 4.69213 19.8847 4.99655C20.0705 5.30092 19.9934 5.64765 19.9193 5.88194C19.6597 6.69914 19.1752 7.36969 18.7067 8.01825L18.6528 8.09286C18.4126 8.42516 18.1621 8.75559 17.9197 9.07513C17.6471 9.43458 17.3652 9.8063 17.1009 10.1774C16.924 10.4241 16.8471 10.591 16.8584 10.7035C16.8698 10.818 16.9794 10.973 17.2032 11.1913C17.2033 11.1913 17.2033 11.1913 17.2034 11.1914C17.3698 11.3539 17.5425 11.5175 17.7096 11.6757C18.185 12.1259 18.6764 12.5914 19.1115 13.1128C19.3511 13.4016 19.6236 13.7507 19.8335 14.1561C20.0347 14.5462 20.0377 14.9861 19.8416 15.3335C19.6787 15.6219 19.4013 15.7995 19.0805 15.8209C19.0716 15.8215 19.0628 15.8218 19.054 15.8218C19.0539 15.8218 19.0539 15.8218 19.0538 15.8218L16.2724 15.8205C15.4983 15.88 14.7983 15.5961 14.1912 14.9772C13.9227 14.7038 13.6665 14.4171 13.4188 14.1398C13.3024 14.0096 13.182 13.875 13.063 13.7446C12.9455 13.6164 12.8027 13.4703 12.6368 13.3626C12.546 13.3037 12.4644 13.2755 12.4184 13.2869C12.3751 13.2978 12.3202 13.3574 12.2715 13.4462C12.0975 13.7634 12.0473 14.1284 12.0255 14.5791C11.9867 15.4318 11.6305 15.78 10.755 15.8199C10.5885 15.8279 10.4244 15.8318 10.263 15.8318ZM0.798649 5.36936C0.802516 5.40151 0.815914 5.46155 0.859157 5.55776C2.0535 8.21364 3.13354 10.1397 4.36113 11.803C5.18203 12.9152 5.99891 13.6818 6.93181 14.2156C8.0042 14.8291 9.24256 15.0934 10.7182 15.024C11.0253 15.01 11.1173 14.964 11.1448 14.9378C11.1659 14.9179 11.2162 14.8393 11.2298 14.5418C11.2533 14.0553 11.3111 13.5404 11.5729 13.0631C11.7751 12.6942 12.0384 12.561 12.2237 12.5143C12.4109 12.4671 12.71 12.46 13.0707 12.6942C13.3117 12.8507 13.4993 13.0411 13.6509 13.2068C13.7733 13.3408 13.8951 13.4771 14.0128 13.6088C14.2545 13.8792 14.5044 14.1587 14.7599 14.419C15.2102 14.878 15.6758 15.0706 16.2237 15.0249C16.2346 15.024 16.2456 15.0236 16.2566 15.0236C16.2567 15.0236 16.2567 15.0236 16.2568 15.0236L19.0377 15.0248C19.0621 15.0219 19.1094 15.0095 19.1478 14.9416C19.1947 14.8585 19.217 14.6988 19.1257 14.5218C18.9508 14.1839 18.7107 13.8775 18.499 13.6222C18.0946 13.1375 17.6414 12.7084 17.1617 12.254C16.9925 12.0937 16.8176 11.928 16.6469 11.7614C15.9248 11.0571 15.8739 10.5212 16.4526 9.71392C16.7232 9.33403 17.0087 8.95755 17.2849 8.59344C17.5245 8.27747 17.7722 7.95078 18.0069 7.62609L18.0608 7.55137C18.5124 6.92629 18.939 6.33589 19.1598 5.64101C19.2036 5.50241 19.2041 5.436 19.202 5.41292C19.1823 5.4005 19.1226 5.37042 18.9776 5.34569C18.9203 5.33589 18.8465 5.33507 18.7757 5.33507L15.7325 5.33237C15.73 5.33237 15.7276 5.33237 15.7251 5.33229C15.546 5.3285 15.4709 5.36272 15.3884 5.5705C15.2235 5.9848 15.0285 6.46542 14.7983 6.93008C14.3565 7.82989 13.7911 8.87122 12.9514 9.76244L12.9196 9.79626C12.7411 9.98685 12.4087 10.3416 11.9063 10.1774C11.9017 10.1758 11.8971 10.1743 11.8926 10.1726C11.3407 9.96982 11.1786 9.23005 11.1855 8.89645L11.1829 5.41698C11.1652 5.29272 11.1363 5.13374 11.0858 5.06647C11.0739 5.05065 11.0391 5.0044 10.8636 4.96502H7.74342C7.61619 4.96502 7.52451 4.98268 7.44318 5.02502C7.90111 5.23276 8.19182 5.63944 8.27529 6.20245C8.39373 6.98828 8.40897 7.82145 8.32315 8.82348C8.29311 9.16122 8.23244 9.42853 8.13209 9.66591C7.97654 10.0342 7.7456 10.1697 7.5792 10.2185C7.41287 10.2673 7.14552 10.2781 6.81599 10.0524C6.4563 9.8063 6.21149 9.46087 6.01485 9.18329C5.27426 8.13766 4.65273 6.98629 4.11464 5.66327C4.00074 5.38456 3.85031 5.34491 3.7182 5.34296C2.75323 5.32686 1.86205 5.32729 0.992986 5.34417C0.88861 5.3462 0.829117 5.35936 0.798649 5.36936Z" fill="#2547C7"/>
<path d="M2.55032 7.20458C2.40481 7.20458 2.26453 7.12458 2.19442 6.98583C2.13481 6.8679 2.07574 6.74962 2.01719 6.6311C1.91973 6.43383 2.00067 6.19488 2.19793 6.09746C2.39532 5.99996 2.63411 6.08098 2.73157 6.2782C2.78903 6.39453 2.84704 6.51063 2.90555 6.62641C3.00477 6.82278 2.92606 7.06239 2.72969 7.16169C2.67208 7.19079 2.61071 7.20458 2.55032 7.20458Z" fill="#2547C7"/>
<path d="M5.08428 11.3945C4.96213 11.3945 4.84155 11.3386 4.76342 11.2327C4.08928 10.3193 3.4597 9.32926 2.83876 8.20594C2.73232 8.0134 2.80216 7.77097 2.9947 7.66453C3.18724 7.55812 3.42966 7.62789 3.53611 7.82047C4.14002 8.91301 4.7512 9.87442 5.40448 10.7595C5.53511 10.9365 5.49753 11.186 5.32053 11.3166C5.2494 11.3693 5.16647 11.3945 5.08428 11.3945Z" fill="#2547C7"/>
</g>
<defs>
<clipPath id="clip0_35_6571">
<rect width="20" height="20" fill="white"/>
</clipPath>
</defs>
</svg>
