<svg width="32" height="32" viewBox="0 0 32 32" fill="none" xmlns="http://www.w3.org/2000/svg">
<circle cx="14.5" cy="15.75" r="14.5" fill="white"/>
<path d="M2.92956 23.8967L6.43608 27.7313L1.36194 28.8507L2.92956 23.8967Z" fill="white"/>
<path d="M26.7188 4.64062C23.8359 1.6875 19.8984 0 15.6797 0C7.10156 0 0.0703125 7.03125 0.0703125 15.6094C0.0703125 18.4219 0.84375 21.0938 2.17969 23.4141L0 31.5L8.22656 29.3906C10.5469 30.5859 13.0781 31.2891 15.6797 31.2891C24.3281 31.2891 31.5 24.2578 31.5 15.6797C31.5 11.4609 29.6719 7.59375 26.7188 4.64062ZM15.6797 28.6172C13.3594 28.6172 11.1094 27.9844 9.07031 26.7891L8.64844 26.5078L3.72656 27.8438L5.0625 23.0625L4.71094 22.5703C3.44531 20.4609 2.74219 18.0703 2.74219 15.6094C2.74219 8.50781 8.57812 2.67188 15.75 2.67188C19.1953 2.67188 22.4297 4.00781 24.8906 6.46875C27.3516 8.92969 28.8281 12.1641 28.8281 15.6797C28.8281 22.7812 22.8516 28.6172 15.6797 28.6172ZM22.8516 18.9141C22.4297 18.7031 20.5312 17.7891 20.1797 17.6484C19.8281 17.5078 19.5469 17.4375 19.2656 17.8594C19.1224 18.098 18.72 18.5959 18.4103 18.9791C18.2638 19.1603 18.1381 19.3159 18.0703 19.4062C17.7891 19.6172 17.5781 19.6875 17.2266 19.4766C14.9062 18.3516 13.4297 17.4375 11.8828 14.8359C11.651 14.4496 11.8013 14.2968 12.1004 13.9926C12.3457 13.7431 12.691 13.3919 13.0078 12.7266C13.1484 12.4453 13.0781 12.2344 13.0078 12.0234C12.9805 11.9416 12.8369 11.606 12.6549 11.1806C12.3676 10.5091 11.9847 9.61409 11.8125 9.14062C11.4879 8.42659 11.2233 8.43168 10.9633 8.43667C10.9416 8.43709 10.92 8.4375 10.8984 8.4375H10.1953C9.91406 8.4375 9.49219 8.50781 9.14062 8.92969C9.10634 8.97083 9.06604 9.01665 9.02122 9.0676C8.60644 9.53919 7.80469 10.4507 7.80469 12.1641C7.80469 14.1328 9.14062 15.9609 9.35156 16.2422C9.37791 16.2685 9.44047 16.353 9.53745 16.484C10.2168 17.4017 12.5856 20.6014 16.0312 22.0781C18.4922 23.2031 19.4766 23.2734 20.7422 23.0625C21.4453 22.9922 22.9922 22.1484 23.3438 21.2344C23.6953 20.3203 23.6953 19.5469 23.5547 19.4062C23.5052 19.2578 23.3512 19.179 23.1418 19.0718C23.0537 19.0267 22.9557 18.9765 22.8516 18.9141Z" fill="#232323"/>
<path d="M26.7188 4.64062C23.8359 1.6875 19.8984 0 15.6797 0C7.10156 0 0.0703125 7.03125 0.0703125 15.6094C0.0703125 18.4219 0.84375 21.0938 2.17969 23.4141L0 31.5L8.22656 29.3906C10.5469 30.5859 13.0781 31.2891 15.6797 31.2891C24.3281 31.2891 31.5 24.2578 31.5 15.6797C31.5 11.4609 29.6719 7.59375 26.7188 4.64062ZM15.6797 28.6172C13.3594 28.6172 11.1094 27.9844 9.07031 26.7891L8.64844 26.5078L3.72656 27.8438L5.0625 23.0625L4.71094 22.5703C3.44531 20.4609 2.74219 18.0703 2.74219 15.6094C2.74219 8.50781 8.57812 2.67188 15.75 2.67188C19.1953 2.67188 22.4297 4.00781 24.8906 6.46875C27.3516 8.92969 28.8281 12.1641 28.8281 15.6797C28.8281 22.7812 22.8516 28.6172 15.6797 28.6172ZM22.8516 18.9141C22.4297 18.7031 20.5312 17.7891 20.1797 17.6484C19.8281 17.5078 19.5469 17.4375 19.2656 17.8594C19.1224 18.098 18.72 18.5959 18.4103 18.9791C18.2638 19.1603 18.1381 19.3159 18.0703 19.4062C17.7891 19.6172 17.5781 19.6875 17.2266 19.4766C14.9062 18.3516 13.4297 17.4375 11.8828 14.8359C11.651 14.4496 11.8013 14.2968 12.1004 13.9926C12.3457 13.7431 12.691 13.3919 13.0078 12.7266C13.1484 12.4453 13.0781 12.2344 13.0078 12.0234C12.9805 11.9416 12.8369 11.606 12.6549 11.1806C12.3676 10.5091 11.9847 9.61409 11.8125 9.14062C11.4879 8.42659 11.2233 8.43168 10.9633 8.43667C10.9416 8.43709 10.92 8.4375 10.8984 8.4375H10.1953C9.91406 8.4375 9.49219 8.50781 9.14062 8.92969C9.10634 8.97083 9.06604 9.01665 9.02122 9.0676C8.60644 9.53919 7.80469 10.4507 7.80469 12.1641C7.80469 14.1328 9.14062 15.9609 9.35156 16.2422C9.37791 16.2685 9.44047 16.353 9.53745 16.484C10.2168 17.4017 12.5856 20.6014 16.0312 22.0781C18.4922 23.2031 19.4766 23.2734 20.7422 23.0625C21.4453 22.9922 22.9922 22.1484 23.3438 21.2344C23.6953 20.3203 23.6953 19.5469 23.5547 19.4062C23.5052 19.2578 23.3512 19.179 23.1418 19.0718C23.0537 19.0267 22.9557 18.9765 22.8516 18.9141Z" stroke="black"/>
</svg>
