<svg width="70" height="70" viewBox="0 0 70 70" fill="none" xmlns="http://www.w3.org/2000/svg">
<g clip-path="url(#clip0_2023_142)">
<path d="M64.2 43.2999C65.2 42.1999 65.8 40.7999 65.8 39.1999C65.8 35.7999 63 32.9999 59.6 32.9999H47.7C48.9 29.3999 49.4 24.5999 49.4 22.5999V20.5999C49.4 16.0999 45.7 12.3999 41.2 12.3999H39.1C38.2 12.3999 37.3 12.9999 37.1 13.9999L36 18.4999C34.4 24.7999 29.5 31.6999 24.3 32.8999C23.4 30.5999 21.2 28.9999 18.6 28.9999H6.3C5.2 28.9999 4.2 29.8999 4.2 31.0999V67.9999C4.2 69.0999 5.1 70.0999 6.3 70.0999H18.6C21 70.0999 23.2 68.6999 24.2 66.5999L31.2 68.8999C33.5 69.6999 35.9 70.0999 38.3 70.0999H55.5C58.9 70.0999 61.7 67.2999 61.7 63.8999C61.7 63.0999 61.5 62.2999 61.3 61.5999C63.9 60.8999 65.8 58.4999 65.8 55.6999C65.8 54.0999 65.2 52.6999 64.2 51.5999C65.2 50.4999 65.8 49.0999 65.8 47.4999C65.8 45.8999 65.2 44.3999 64.2 43.2999ZM20.6 63.7999C20.6 64.8999 19.7 65.8999 18.5 65.8999H8.3V33.0999H18.6C19.7 33.0999 20.7 33.9999 20.7 35.1999V63.7999H20.6ZM55.5 45.3999H59.6C60.7 45.3999 61.7 46.2999 61.7 47.4999C61.7 48.5999 60.8 49.5999 59.6 49.5999H55.5C54.4 49.5999 53.4 50.4999 53.4 51.6999C53.4 52.7999 54.3 53.7999 55.5 53.7999H59.6C60.7 53.7999 61.7 54.6999 61.7 55.8999C61.7 56.9999 60.8 57.9999 59.6 57.9999H55.5C54.4 57.9999 53.4 58.8999 53.4 60.0999C53.4 61.2999 54.3 62.1999 55.5 62.1999C56.6 62.1999 57.6 63.0999 57.6 64.2999C57.6 65.3999 56.7 66.3999 55.5 66.3999H38.3C36.3 66.3999 34.3 66.0999 32.5 65.4999L24.8 62.8999V36.9999C28 36.3999 31.2 34.3999 34 30.9999C36.8 27.6999 39 23.3999 40 19.3999L40.7 16.4999H41.1C43.4 16.4999 45.2 18.2999 45.2 20.5999V22.5999C45.2 25.3999 44.3 30.5999 43.2 32.9999H39C37.9 32.9999 36.9 33.8999 36.9 35.0999C36.9 36.2999 37.8 37.1999 39 37.1999H59.5C60.6 37.1999 61.6 38.0999 61.6 39.2999C61.6 40.3999 60.7 41.3999 59.5 41.3999H55.4C54.3 41.3999 53.3 42.2999 53.3 43.4999C53.5 44.4999 54.4 45.3999 55.5 45.3999Z" fill="#35A8FC"/>
<path d="M14.5 61.8001C15.6 61.8001 16.6 60.9001 16.6 59.7001C16.6 58.6001 15.7 57.6001 14.5 57.6001C13.3 57.6001 12.4 58.5001 12.4 59.7001C12.4 60.9001 13.4 61.8001 14.5 61.8001Z" fill="#35A8FC"/>
<path d="M43.2004 0C42.1004 0 41.1004 0.9 41.1004 2.1V6.3C41.1004 7.4 42.0004 8.4 43.2004 8.4C44.3004 8.4 45.3004 7.5 45.3004 6.3V2.1C45.3004 0.9 44.3004 0 43.2004 0Z" fill="#FF190A"/>
<path d="M34.5004 9L31.6004 6.1C30.8004 5.3 29.5004 5.3 28.7004 6.1C27.9004 6.9 27.9004 8.2 28.7004 9L31.6004 11.9C32.4004 12.7 33.7004 12.7 34.5004 11.9C35.3004 11.1 35.3004 9.8 34.5004 9Z" fill="#FF190A"/>
<path d="M57.6996 6.1C56.8996 5.3 55.5996 5.3 54.7996 6.1L51.8996 9C51.0996 9.8 51.0996 11.1 51.8996 11.9C52.6996 12.7 53.9996 12.7 54.7996 11.9L57.6996 9C58.4996 8.2 58.4996 6.9 57.6996 6.1Z" fill="#FF190A"/>
</g>
<defs>
<clipPath id="clip0_2023_142">
<rect width="70" height="70" fill="white"/>
</clipPath>
</defs>
</svg>
